<svg width="30" height="30" viewBox="0 0 30 30" fill="none" xmlns="http://www.w3.org/2000/svg">
<g clip-path="url(#clip0_118_8)">
<path d="M18.75 8.74997H12.7125V6.76747C12.7124 6.2731 12.5657 5.78985 12.291 5.37883C12.0163 4.9678 11.6259 4.64745 11.1691 4.45828C10.7124 4.2691 10.2098 4.2196 9.72491 4.31601C9.24003 4.41243 8.79462 4.65045 8.44499 4.99997L1.09499 12.3487C0.391972 13.052 -0.00296021 14.0056 -0.00296021 15C-0.00296021 15.9943 0.391972 16.948 1.09499 17.6512L8.44499 25C8.79462 25.3495 9.24003 25.5875 9.72491 25.6839C10.2098 25.7803 10.7124 25.7308 11.1691 25.5417C11.6259 25.3525 12.0163 25.0321 12.291 24.6211C12.5657 24.2101 12.7124 23.7268 12.7125 23.2325V21.25H20C21.9885 21.252 23.895 22.0428 25.3011 23.4489C26.7072 24.855 27.498 26.7615 27.5 28.75C27.5 29.0815 27.6317 29.3994 27.8661 29.6339C28.1005 29.8683 28.4185 30 28.75 30C29.0815 30 29.3995 29.8683 29.6339 29.6339C29.8683 29.3994 30 29.0815 30 28.75V20C29.9967 17.0173 28.8104 14.1577 26.7013 12.0487C24.5922 9.93961 21.7327 8.75328 18.75 8.74997Z" fill="white"/>
</g>
<defs>
<clipPath id="clip0_118_8">
<rect width="30" height="30" fill="white"/>
</clipPath>
</defs>
</svg>
